<svg id="logos" xmlns="http://www.w3.org/2000/svg" viewBox="0 0 279.63 251.35"><defs><style>.cls-1{fill:#00b1aa}.cls-2{fill:#ecbf00}.cls-3{fill:#00456b}</style></defs><path class="cls-1" d="M872.5 259.7c-19.94 0-27.37-17.09-27.37-27.87 0-11.09 7.14-20.16 14.69-29.77l.17-.22c2.6-3.3 4-4.41 6.38-7.94 3.34-5 8.15-10.81 8.54-18.73 2.35 1.68 4.78 8 4.88 14.65.08 4.52-1.67 9.3-5.2 14.21-1.76 2.45-2.35 2.5-4.15 4.79-6.87 8.72-13.35 16.93-12.7 27 .54 8.46 6.85 22.81 21.67 21.05 4.89-.58 8.8-4.41 12-6.9a24 24 0 0 1-18.95 9.73" transform="translate(-720.47 -135.93)"/><path class="cls-2" d="M885.36 197.61c0 4.69-3.22 9.11-5.93 12.89-1.69 2.35-3.49 4.63-5.07 6.64-5.58 7.08-10.38 13.17-10 19.56.31 5 3.93 12 12.57 12.44a12.92 12.92 0 0 0 7.48-2.3 13 13 0 0 1-2.76.84 6.73 6.73 0 0 1-.91.06 7.3 7.3 0 0 1-4.83-1.89 9.32 9.32 0 0 1-3.12-6.91 14.76 14.76 0 0 1 1.94-6.59l.37-.72a53.05 53.05 0 0 1 4.24-6.47l1.32-1.68c1.73-2.22 3.43-4.18 4.67-5.62l.86-1c.11-.13.22-.26.35-.43a12.2 12.2 0 0 0 2.54-6.54c.35-4.16-2-8.62-3.74-12.25" transform="translate(-720.47 -135.93)"/><path class="cls-3" d="M871.42 144.69a8.75 8.75 0 1 1-8.75-8.76 8.76 8.76 0 0 1 8.75 8.76" transform="translate(-720.47 -135.93)"/><path class="cls-3" d="M902.51 233.59c-2.1 10.72-7.27 30.51-32.42 30.51-23.81 0-32.69-19.5-32.69-31.8s7.91-22 15.55-31.31l.08-.1c2.48-3 5-6.14 7.24-9.27.82-1.17 1.63-2.48 2.42-3.86.68-1.2 1.34-2.46 2-3.74 2.74-5.07 7.92-14.2 13.06-20.65 13-13.47 7.39-22.71 7.39-22.71-1.05 3.94-1.39 9-11.71 14.47a30.75 30.75 0 0 0-11 9.35c-.64-1.19-2.92-3.63-10.87-7.71a25.86 25.86 0 0 1-11.49-10.85 17.81 17.81 0 0 1-1.7-4.78A12.32 12.32 0 0 0 838 152c.07.17.15.33.23.5l.08.14a14 14 0 0 0 1.88 3c5.62 8.07 13.94 15.56 1.11 31.06-9 10.86-23.39 24.49-23.39 45 0 22.36 18.85 40.43 42.93 41.12h1.68c24.21 0 40.25-13.38 40.25-35.42ZM744.77 332.66a6.13 6.13 0 0 0 6.06-6.38 5.86 5.86 0 0 0-6.06-6.06H733v12.44Zm-24.3-22.33a1.52 1.52 0 0 1 1.51-1.52h23.83A17 17 0 0 1 763.18 326c0 7.34-4.38 13.24-11.79 16l10.92 20.25a1.51 1.51 0 0 1-1.36 2.31h-10.6a1.46 1.46 0 0 1-1.27-.72l-10.6-21.13H733v20.34a1.57 1.57 0 0 1-1.51 1.51H722a1.52 1.52 0 0 1-1.51-1.51ZM800.23 352.68a15.95 15.95 0 1 0-15.86-15.87 16 16 0 0 0 15.86 15.87m0-44.66a28.71 28.71 0 1 1-28.61 28.79A28.65 28.65 0 0 1 800.23 308M837.85 359.3a1.79 1.79 0 0 1-.32-2.39l3.66-6.46a1.88 1.88 0 0 1 2.71-.48c2.23 1.51 6.3 4.39 11.32 4.39 3.19 0 5.5-2 5.5-4.79 0-3.35-2.95-5.5-8.21-8.05-7.73-3.75-15.46-8.06-15.46-17.63 0-7.9 6.14-15.87 18.41-15.87 8.29 0 14.66 4.23 17.05 6a2 2 0 0 1 .48 2.55l-4.06 6.14a2.46 2.46 0 0 1-3.51.56c-1.83-1.28-6.53-4.31-10.76-4.31-3.35 0-4.86 2.07-4.86 4.39 0 2.63 3.11 4.7 8.69 7.42 7 3.43 16.09 7.34 16.09 18.18 0 8.21-7.09 16.51-18.81 16.51-10.36 0-16.1-4.31-17.93-6.14" transform="translate(-720.47 -135.93)"/><path class="cls-3" d="M166.63 172.88h9.56a1.51 1.51 0 0 1 1.51 1.51v52.8a1.52 1.52 0 0 1-1.52 1.52h-9.56a1.51 1.51 0 0 1-1.51-1.51v-52.8a1.52 1.52 0 0 1 1.52-1.52Z"/><path class="cls-3" d="M921 320.54h-11.35a1.51 1.51 0 0 1-1.51-1.52v-8.69a1.51 1.51 0 0 1 1.51-1.52H945a1.51 1.51 0 0 1 1.52 1.52V319a1.51 1.51 0 0 1-1.52 1.52h-11.36v42.59a1.57 1.57 0 0 1-1.52 1.51h-9.56a1.57 1.57 0 0 1-1.51-1.51ZM979.3 345.5l-6.06-13.16h-.08l-6 13.16Zm-32.75 17.07 24.94-53.67a1.62 1.62 0 0 1 1.36-.88h.8a1.61 1.61 0 0 1 1.35.88l24.94 53.67a1.41 1.41 0 0 1-1.36 2.08h-8.85c-1.43 0-2.07-.48-2.79-2l-2.87-6.3H962.4l-2.87 6.38a3 3 0 0 1-2.87 1.91h-8.76a1.41 1.41 0 0 1-1.36-2.08" transform="translate(-720.47 -135.93)"/><path class="cls-1" d="M10.87 240.27v10.75h2.15v-4.48h3.9v-2.16h-3.9v-1.95h7.38v-2.16h-9.53z"/><path class="cls-1" d="M749.87 378.36v2.05h4.68a4.52 4.52 0 0 0 .54 0 2.08 2.08 0 0 0 .56-.13 1 1 0 0 0 .45-.31.84.84 0 0 0 .18-.56.89.89 0 0 0-.17-.58.94.94 0 0 0-.41-.3 2 2 0 0 0-.55-.11h-.59Zm4.68-2.16a6.74 6.74 0 0 1 1.44.16 3.75 3.75 0 0 1 1.24.52 2.6 2.6 0 0 1 .87 1 3.24 3.24 0 0 1 .32 1.52 3.38 3.38 0 0 1-.23 1.31 2.91 2.91 0 0 1-.59.91 3 3 0 0 1-.79.59 7.69 7.69 0 0 1-.8.36l2.72 4.4H756l-2.71-4.38h-3.44v4.38h-2.16V376.2Z" transform="translate(-720.47 -135.93)"/><path class="cls-1" d="M45.46 240.27v10.75h9.78v-2.16h-7.62v-2.32h3.89v-2.16h-3.89v-1.95H55v-2.16h-9.54z"/><path class="cls-1" d="M782.76 383.48a9.78 9.78 0 0 0 2.76 1.28 10.69 10.69 0 0 0 2.78.36 8 8 0 0 0 .91-.06 4 4 0 0 0 .94-.23 2.2 2.2 0 0 0 .75-.45 1 1 0 0 0 .3-.73.88.88 0 0 0-.16-.54 1.12 1.12 0 0 0-.41-.33 2.2 2.2 0 0 0-.53-.19 2.26 2.26 0 0 0-.53-.06l-3.21-.1a5.14 5.14 0 0 1-1.73-.3 3.7 3.7 0 0 1-1.22-.73 2.8 2.8 0 0 1-.72-1 3.11 3.11 0 0 1-.24-1.2 3 3 0 0 1 .25-1.19 2.72 2.72 0 0 1 .83-1.06 4.53 4.53 0 0 1 1.54-.76 8.49 8.49 0 0 1 2.41-.29 9.51 9.51 0 0 1 1.91.18 12.55 12.55 0 0 1 1.5.4 7.2 7.2 0 0 1 1.09.47l.69.36-1 1.91c-.21-.11-.46-.23-.77-.36a10.63 10.63 0 0 0-2.28-.68 8.4 8.4 0 0 0-1.49-.12 7.87 7.87 0 0 0-.88.05 3.71 3.71 0 0 0-.82.19 1.65 1.65 0 0 0-.61.37.8.8 0 0 0-.24.59.68.68 0 0 0 .2.51 1.48 1.48 0 0 0 .49.32 2.25 2.25 0 0 0 .62.17 4.72 4.72 0 0 0 .6 0l2.8.1a5 5 0 0 1 3 .86 3 3 0 0 1 1.09 2.52 3.32 3.32 0 0 1-.29 1.37 2.91 2.91 0 0 1-.91 1.12 4.74 4.74 0 0 1-1.57.76 8.08 8.08 0 0 1-2.28.28 12.94 12.94 0 0 1-3.8-.5 8.46 8.46 0 0 1-2.73-1.37Z" transform="translate(-720.47 -135.93)"/><path class="cls-1" d="M88.47 240.27v4.07h-5.76v-4.07h-2.15v10.75h2.15v-4.52h5.76v4.52h2.16v-10.75h-2.16z"/><path class="cls-2" d="M826 382.14a2.35 2.35 0 1 1 .69 1.72 2.34 2.34 0 0 1-.69-1.72" transform="translate(-720.47 -135.93)"/><path class="cls-1" d="m138.66 240.27-2.47 7.89h-.04l-2.11-7.89h-2.78l-2.18 7.89h-.04l-2.4-7.89h-2.24l3.3 10.75h2.84l2.05-7.89h.04l2.05 7.89h2.88l3.34-10.75h-2.24zM147.35 240.27h2.16v10.75h-2.16zM157.79 240.27v10.75h8.34v-2.16h-6.18v-8.59h-2.16z"/><path class="cls-1" d="M895.92 384.79h3.67a4 4 0 0 0 1.31-.21 2.89 2.89 0 0 0 1-.61 2.84 2.84 0 0 0 .68-1 4.36 4.36 0 0 0 0-3 2.5 2.5 0 0 0-1.78-1.48 5.54 5.54 0 0 0-1.21-.13h-3.67Zm3.67-8.59a7.57 7.57 0 0 1 1.9.25 4.91 4.91 0 0 1 1.75.85 4.5 4.5 0 0 1 1.29 1.61 5.62 5.62 0 0 1 .5 2.5 6.66 6.66 0 0 1-.39 2.37 4.83 4.83 0 0 1-1.11 1.74 4.71 4.71 0 0 1-1.72 1.07 6.42 6.42 0 0 1-2.21.36h-5.82V376.2Z" transform="translate(-720.47 -135.93)"/><path class="cls-2" d="M918.45 382.14a2.35 2.35 0 1 1 .69 1.72 2.33 2.33 0 0 1-.69-1.72" transform="translate(-720.47 -135.93)"/><path class="cls-1" d="M941.72 378.36v2.05h4.68a4.51 4.51 0 0 0 .54 0 2.09 2.09 0 0 0 .56-.13 1.05 1.05 0 0 0 .45-.31.84.84 0 0 0 .18-.56.89.89 0 0 0-.17-.58.94.94 0 0 0-.42-.3 2 2 0 0 0-.55-.11h-.59Zm4.68-2.16a6.76 6.76 0 0 1 1.44.16 3.75 3.75 0 0 1 1.24.52 2.62 2.62 0 0 1 .87 1 3.24 3.24 0 0 1 .32 1.52 3.39 3.39 0 0 1-.23 1.31 3 3 0 0 1-.59.91 3 3 0 0 1-.79.59 7.48 7.48 0 0 1-.8.36l2.72 4.4h-2.72l-2.71-4.38h-3.44v4.38h-2.16V376.2ZM962.14 378.3l2.07 4.23h-4.15Zm-1.45-2.1-5.21 10.8h2.45l1.08-2.26h6.28l1.08 2.26h2.45l-5.26-10.75Z" transform="translate(-720.47 -135.93)"/><path class="cls-1" d="m266.52 240.27-2.47 7.89h-.04l-2.11-7.89h-2.78l-2.18 7.89h-.04l-2.4-7.89h-2.24l3.29 10.75h2.84l2.06-7.89h.04l2.05 7.89h2.88l3.34-10.75h-2.24z"/><path class="cls-1" d="M872.5 259.7c-19.94 0-27.37-17.09-27.37-27.87 0-11.09 7.14-20.16 14.69-29.77l.17-.22c2.6-3.3 4-4.41 6.38-7.94 3.34-5 8.15-10.81 8.54-18.73 2.35 1.68 4.78 8 4.88 14.65.08 4.52-1.67 9.3-5.2 14.21-1.76 2.45-2.35 2.5-4.15 4.79-6.87 8.72-13.35 16.93-12.7 27 .54 8.46 6.85 22.81 21.67 21.05 4.89-.58 8.8-4.41 12-6.9a24 24 0 0 1-18.95 9.73" transform="translate(-720.47 -135.93)"/><path class="cls-2" d="M885.36 197.61c0 4.69-3.22 9.11-5.93 12.89-1.69 2.35-3.49 4.63-5.07 6.64-5.58 7.08-10.38 13.17-10 19.56.31 5 3.93 12 12.57 12.44a12.92 12.92 0 0 0 7.48-2.3 13 13 0 0 1-2.76.84 6.73 6.73 0 0 1-.91.06 7.3 7.3 0 0 1-4.83-1.89 9.32 9.32 0 0 1-3.12-6.91 14.76 14.76 0 0 1 1.94-6.59l.37-.72a53.05 53.05 0 0 1 4.24-6.47l1.32-1.68c1.73-2.22 3.43-4.18 4.67-5.62l.86-1c.11-.13.22-.26.35-.43a12.2 12.2 0 0 0 2.54-6.54c.35-4.16-2-8.62-3.74-12.25" transform="translate(-720.47 -135.93)"/><path class="cls-3" d="M871.42 144.69a8.75 8.75 0 1 1-8.75-8.76 8.76 8.76 0 0 1 8.75 8.76" transform="translate(-720.47 -135.93)"/><path class="cls-3" d="M902.51 233.59c-2.1 10.72-7.27 30.51-32.42 30.51-23.81 0-32.69-19.5-32.69-31.8s7.91-22 15.55-31.31l.08-.1c2.48-3 5-6.14 7.24-9.27.82-1.17 1.63-2.48 2.42-3.86.68-1.2 1.34-2.46 2-3.74 2.74-5.07 7.92-14.2 13.06-20.65 13-13.47 7.39-22.71 7.39-22.71-1.05 3.94-1.39 9-11.71 14.47a30.75 30.75 0 0 0-11 9.35c-.64-1.19-2.92-3.63-10.87-7.71a25.86 25.86 0 0 1-11.49-10.85 17.81 17.81 0 0 1-1.7-4.78A12.32 12.32 0 0 0 838 152c.07.17.15.33.23.5l.08.14a14 14 0 0 0 1.88 3c5.62 8.07 13.94 15.56 1.11 31.06-9 10.86-23.39 24.49-23.39 45 0 22.36 18.85 40.43 42.93 41.12h1.68c24.21 0 40.25-13.38 40.25-35.42ZM744.77 332.66a6.13 6.13 0 0 0 6.06-6.38 5.86 5.86 0 0 0-6.06-6.06H733v12.44Zm-24.3-22.33a1.52 1.52 0 0 1 1.51-1.52h23.83A17 17 0 0 1 763.18 326c0 7.34-4.38 13.24-11.79 16l10.92 20.25a1.51 1.51 0 0 1-1.36 2.31h-10.6a1.46 1.46 0 0 1-1.27-.72l-10.6-21.13H733v20.34a1.57 1.57 0 0 1-1.51 1.51H722a1.52 1.52 0 0 1-1.51-1.51ZM800.23 352.68a15.95 15.95 0 1 0-15.86-15.87 16 16 0 0 0 15.86 15.87m0-44.66a28.71 28.71 0 1 1-28.61 28.79A28.65 28.65 0 0 1 800.23 308M837.85 359.3a1.79 1.79 0 0 1-.32-2.39l3.66-6.46a1.88 1.88 0 0 1 2.71-.48c2.23 1.51 6.3 4.39 11.32 4.39 3.19 0 5.5-2 5.5-4.79 0-3.35-2.95-5.5-8.21-8.05-7.73-3.75-15.46-8.06-15.46-17.63 0-7.9 6.14-15.87 18.41-15.87 8.29 0 14.66 4.23 17.05 6a2 2 0 0 1 .48 2.55l-4.06 6.14a2.46 2.46 0 0 1-3.51.56c-1.83-1.28-6.53-4.31-10.76-4.31-3.35 0-4.86 2.07-4.86 4.39 0 2.63 3.11 4.7 8.69 7.42 7 3.43 16.09 7.34 16.09 18.18 0 8.21-7.09 16.51-18.81 16.51-10.36 0-16.1-4.31-17.93-6.14" transform="translate(-720.47 -135.93)"/><path class="cls-3" d="M166.63 172.88h9.56a1.51 1.51 0 0 1 1.51 1.51v52.8a1.52 1.52 0 0 1-1.52 1.52h-9.56a1.51 1.51 0 0 1-1.51-1.51v-52.8a1.52 1.52 0 0 1 1.52-1.52Z"/><path class="cls-3" d="M921 320.54h-11.35a1.51 1.51 0 0 1-1.51-1.52v-8.69a1.51 1.51 0 0 1 1.51-1.52H945a1.51 1.51 0 0 1 1.52 1.52V319a1.51 1.51 0 0 1-1.52 1.52h-11.36v42.59a1.57 1.57 0 0 1-1.52 1.51h-9.56a1.57 1.57 0 0 1-1.51-1.51ZM979.3 345.5l-6.06-13.16h-.08l-6 13.16Zm-32.75 17.07 24.94-53.67a1.62 1.62 0 0 1 1.36-.88h.8a1.61 1.61 0 0 1 1.35.88l24.94 53.67a1.41 1.41 0 0 1-1.36 2.08h-8.85c-1.43 0-2.07-.48-2.79-2l-2.87-6.3H962.4l-2.87 6.38a3 3 0 0 1-2.87 1.91h-8.76a1.41 1.41 0 0 1-1.36-2.08" transform="translate(-720.47 -135.93)"/><path class="cls-1" d="M10.87 240.27v10.75h2.15v-4.48h3.9v-2.16h-3.9v-1.95h7.38v-2.16h-9.53z"/><path class="cls-1" d="M749.87 378.36v2.05h4.68a4.52 4.52 0 0 0 .54 0 2.08 2.08 0 0 0 .56-.13 1 1 0 0 0 .45-.31.84.84 0 0 0 .18-.56.89.89 0 0 0-.17-.58.94.94 0 0 0-.41-.3 2 2 0 0 0-.55-.11h-.59Zm4.68-2.16a6.74 6.74 0 0 1 1.44.16 3.75 3.75 0 0 1 1.24.52 2.6 2.6 0 0 1 .87 1 3.24 3.24 0 0 1 .32 1.52 3.38 3.38 0 0 1-.23 1.31 2.91 2.91 0 0 1-.59.91 3 3 0 0 1-.79.59 7.69 7.69 0 0 1-.8.36l2.72 4.4H756l-2.71-4.38h-3.44v4.38h-2.16V376.2Z" transform="translate(-720.47 -135.93)"/><path class="cls-1" d="M45.46 240.27v10.75h9.78v-2.16h-7.62v-2.32h3.89v-2.16h-3.89v-1.95H55v-2.16h-9.54z"/><path class="cls-1" d="M782.76 383.48a9.78 9.78 0 0 0 2.76 1.28 10.69 10.69 0 0 0 2.78.36 8 8 0 0 0 .91-.06 4 4 0 0 0 .94-.23 2.2 2.2 0 0 0 .75-.45 1 1 0 0 0 .3-.73.88.88 0 0 0-.16-.54 1.12 1.12 0 0 0-.41-.33 2.2 2.2 0 0 0-.53-.19 2.26 2.26 0 0 0-.53-.06l-3.21-.1a5.14 5.14 0 0 1-1.73-.3 3.7 3.7 0 0 1-1.22-.73 2.8 2.8 0 0 1-.72-1 3.11 3.11 0 0 1-.24-1.2 3 3 0 0 1 .25-1.19 2.72 2.72 0 0 1 .83-1.06 4.53 4.53 0 0 1 1.54-.76 8.49 8.49 0 0 1 2.41-.29 9.51 9.51 0 0 1 1.91.18 12.55 12.55 0 0 1 1.5.4 7.2 7.2 0 0 1 1.09.47l.69.36-1 1.91c-.21-.11-.46-.23-.77-.36a10.63 10.63 0 0 0-2.28-.68 8.4 8.4 0 0 0-1.49-.12 7.87 7.87 0 0 0-.88.05 3.71 3.71 0 0 0-.82.19 1.65 1.65 0 0 0-.61.37.8.8 0 0 0-.24.59.68.68 0 0 0 .2.51 1.48 1.48 0 0 0 .49.32 2.25 2.25 0 0 0 .62.17 4.72 4.72 0 0 0 .6 0l2.8.1a5 5 0 0 1 3 .86 3 3 0 0 1 1.09 2.52 3.32 3.32 0 0 1-.29 1.37 2.91 2.91 0 0 1-.91 1.12 4.74 4.74 0 0 1-1.57.76 8.08 8.08 0 0 1-2.28.28 12.94 12.94 0 0 1-3.8-.5 8.46 8.46 0 0 1-2.73-1.37Z" transform="translate(-720.47 -135.93)"/><path class="cls-1" d="M88.47 240.27v4.07h-5.76v-4.07h-2.15v10.75h2.15v-4.52h5.76v4.52h2.16v-10.75h-2.16z"/><path class="cls-2" d="M826 382.14a2.35 2.35 0 1 1 .69 1.72 2.34 2.34 0 0 1-.69-1.72" transform="translate(-720.47 -135.93)"/><path class="cls-1" d="m138.66 240.27-2.47 7.89h-.04l-2.11-7.89h-2.78l-2.18 7.89h-.04l-2.4-7.89h-2.24l3.3 10.75h2.84l2.05-7.89h.04l2.05 7.89h2.88l3.34-10.75h-2.24zM147.35 240.27h2.16v10.75h-2.16zM157.79 240.27v10.75h8.34v-2.16h-6.18v-8.59h-2.16z"/><path class="cls-1" d="M895.92 384.79h3.67a4 4 0 0 0 1.31-.21 2.89 2.89 0 0 0 1-.61 2.84 2.84 0 0 0 .68-1 4.36 4.36 0 0 0 0-3 2.5 2.5 0 0 0-1.78-1.48 5.54 5.54 0 0 0-1.21-.13h-3.67Zm3.67-8.59a7.57 7.57 0 0 1 1.9.25 4.91 4.91 0 0 1 1.75.85 4.5 4.5 0 0 1 1.29 1.61 5.62 5.62 0 0 1 .5 2.5 6.66 6.66 0 0 1-.39 2.37 4.83 4.83 0 0 1-1.11 1.74 4.71 4.71 0 0 1-1.72 1.07 6.42 6.42 0 0 1-2.21.36h-5.82V376.2Z" transform="translate(-720.47 -135.93)"/><path class="cls-2" d="M918.45 382.14a2.35 2.35 0 1 1 .69 1.72 2.33 2.33 0 0 1-.69-1.72" transform="translate(-720.47 -135.93)"/><path class="cls-1" d="M941.72 378.36v2.05h4.68a4.51 4.51 0 0 0 .54 0 2.09 2.09 0 0 0 .56-.13 1.05 1.05 0 0 0 .45-.31.84.84 0 0 0 .18-.56.89.89 0 0 0-.17-.58.94.94 0 0 0-.42-.3 2 2 0 0 0-.55-.11h-.59Zm4.68-2.16a6.76 6.76 0 0 1 1.44.16 3.75 3.75 0 0 1 1.24.52 2.62 2.62 0 0 1 .87 1 3.24 3.24 0 0 1 .32 1.52 3.39 3.39 0 0 1-.23 1.31 3 3 0 0 1-.59.91 3 3 0 0 1-.79.59 7.48 7.48 0 0 1-.8.36l2.72 4.4h-2.72l-2.71-4.38h-3.44v4.38h-2.16V376.2ZM962.14 378.3l2.07 4.23h-4.15Zm-1.45-2.1-5.21 10.8h2.45l1.08-2.26h6.28l1.08 2.26h2.45l-5.26-10.75Z" transform="translate(-720.47 -135.93)"/><path class="cls-1" d="m266.52 240.27-2.47 7.89h-.04l-2.11-7.89h-2.78l-2.18 7.89h-.04l-2.4-7.89h-2.24l3.29 10.75h2.84l2.06-7.89h.04l2.05 7.89h2.88l3.34-10.75h-2.24z"/><path class="cls-1" d="M872.5 259.7c-19.94 0-27.37-17.09-27.37-27.87 0-11.09 7.14-20.16 14.69-29.77l.17-.22c2.6-3.3 4-4.41 6.38-7.94 3.34-5 8.15-10.81 8.54-18.73 2.35 1.68 4.78 8 4.88 14.65.08 4.52-1.67 9.3-5.2 14.21-1.76 2.45-2.35 2.5-4.15 4.79-6.87 8.72-13.35 16.93-12.7 27 .54 8.46 6.85 22.81 21.67 21.05 4.89-.58 8.8-4.41 12-6.9a24 24 0 0 1-18.95 9.73" transform="translate(-720.47 -135.93)"/><path class="cls-2" d="M885.36 197.61c0 4.69-3.22 9.11-5.93 12.89-1.69 2.35-3.49 4.63-5.07 6.64-5.58 7.08-10.38 13.17-10 19.56.31 5 3.93 12 12.57 12.44a12.92 12.92 0 0 0 7.48-2.3 13 13 0 0 1-2.76.84 6.73 6.73 0 0 1-.91.06 7.3 7.3 0 0 1-4.83-1.89 9.32 9.32 0 0 1-3.12-6.91 14.76 14.76 0 0 1 1.94-6.59l.37-.72a53.05 53.05 0 0 1 4.24-6.47l1.32-1.68c1.73-2.22 3.43-4.18 4.67-5.62l.86-1c.11-.13.22-.26.35-.43a12.2 12.2 0 0 0 2.54-6.54c.35-4.16-2-8.62-3.74-12.25" transform="translate(-720.47 -135.93)"/><path class="cls-3" d="M871.42 144.69a8.75 8.75 0 1 1-8.75-8.76 8.76 8.76 0 0 1 8.75 8.76" transform="translate(-720.47 -135.93)"/><path class="cls-3" d="M902.51 233.59c-2.1 10.72-7.27 30.51-32.42 30.51-23.81 0-32.69-19.5-32.69-31.8s7.91-22 15.55-31.31l.08-.1c2.48-3 5-6.14 7.24-9.27.82-1.17 1.63-2.48 2.42-3.86.68-1.2 1.34-2.46 2-3.74 2.74-5.07 7.92-14.2 13.06-20.65 13-13.47 7.39-22.71 7.39-22.71-1.05 3.94-1.39 9-11.71 14.47a30.75 30.75 0 0 0-11 9.35c-.64-1.19-2.92-3.63-10.87-7.71a25.86 25.86 0 0 1-11.49-10.85 17.81 17.81 0 0 1-1.7-4.78A12.32 12.32 0 0 0 838 152c.07.17.15.33.23.5l.08.14a14 14 0 0 0 1.88 3c5.62 8.07 13.94 15.56 1.11 31.06-9 10.86-23.39 24.49-23.39 45 0 22.36 18.85 40.43 42.93 41.12h1.68c24.21 0 40.25-13.38 40.25-35.42ZM744.77 332.66a6.13 6.13 0 0 0 6.06-6.38 5.86 5.86 0 0 0-6.06-6.06H733v12.44Zm-24.3-22.33a1.52 1.52 0 0 1 1.51-1.52h23.83A17 17 0 0 1 763.18 326c0 7.34-4.38 13.24-11.79 16l10.92 20.25a1.51 1.51 0 0 1-1.36 2.31h-10.6a1.46 1.46 0 0 1-1.27-.72l-10.6-21.13H733v20.34a1.57 1.57 0 0 1-1.51 1.51H722a1.52 1.52 0 0 1-1.51-1.51ZM800.23 352.68a15.95 15.95 0 1 0-15.86-15.87 16 16 0 0 0 15.86 15.87m0-44.66a28.71 28.71 0 1 1-28.61 28.79A28.65 28.65 0 0 1 800.23 308M837.85 359.3a1.79 1.79 0 0 1-.32-2.39l3.66-6.46a1.88 1.88 0 0 1 2.71-.48c2.23 1.51 6.3 4.39 11.32 4.39 3.19 0 5.5-2 5.5-4.79 0-3.35-2.95-5.5-8.21-8.05-7.73-3.75-15.46-8.06-15.46-17.63 0-7.9 6.14-15.87 18.41-15.87 8.29 0 14.66 4.23 17.05 6a2 2 0 0 1 .48 2.55l-4.06 6.14a2.46 2.46 0 0 1-3.51.56c-1.83-1.28-6.53-4.31-10.76-4.31-3.35 0-4.86 2.07-4.86 4.39 0 2.63 3.11 4.7 8.69 7.42 7 3.43 16.09 7.34 16.09 18.18 0 8.21-7.09 16.51-18.81 16.51-10.36 0-16.1-4.31-17.93-6.14" transform="translate(-720.47 -135.93)"/><path class="cls-3" d="M166.63 172.88h9.56a1.51 1.51 0 0 1 1.51 1.51v52.8a1.52 1.52 0 0 1-1.52 1.52h-9.56a1.51 1.51 0 0 1-1.51-1.51v-52.8a1.52 1.52 0 0 1 1.52-1.52Z"/><path class="cls-3" d="M921 320.54h-11.35a1.51 1.51 0 0 1-1.51-1.52v-8.69a1.51 1.51 0 0 1 1.51-1.52H945a1.51 1.51 0 0 1 1.52 1.52V319a1.51 1.51 0 0 1-1.52 1.52h-11.36v42.59a1.57 1.57 0 0 1-1.52 1.51h-9.56a1.57 1.57 0 0 1-1.51-1.51ZM979.3 345.5l-6.06-13.16h-.08l-6 13.16Zm-32.75 17.07 24.94-53.67a1.62 1.62 0 0 1 1.36-.88h.8a1.61 1.61 0 0 1 1.35.88l24.94 53.67a1.41 1.41 0 0 1-1.36 2.08h-8.85c-1.43 0-2.07-.48-2.79-2l-2.87-6.3H962.4l-2.87 6.38a3 3 0 0 1-2.87 1.91h-8.76a1.41 1.41 0 0 1-1.36-2.08" transform="translate(-720.47 -135.93)"/><path class="cls-1" d="M10.87 240.27v10.75h2.15v-4.48h3.9v-2.16h-3.9v-1.95h7.38v-2.16h-9.53z"/><path class="cls-1" d="M749.87 378.36v2.05h4.68a4.52 4.52 0 0 0 .54 0 2.08 2.08 0 0 0 .56-.13 1 1 0 0 0 .45-.31.84.84 0 0 0 .18-.56.89.89 0 0 0-.17-.58.94.94 0 0 0-.41-.3 2 2 0 0 0-.55-.11h-.59Zm4.68-2.16a6.74 6.74 0 0 1 1.44.16 3.75 3.75 0 0 1 1.24.52 2.6 2.6 0 0 1 .87 1 3.24 3.24 0 0 1 .32 1.52 3.38 3.38 0 0 1-.23 1.31 2.91 2.91 0 0 1-.59.91 3 3 0 0 1-.79.59 7.69 7.69 0 0 1-.8.36l2.72 4.4H756l-2.71-4.38h-3.44v4.38h-2.16V376.2Z" transform="translate(-720.47 -135.93)"/><path class="cls-1" d="M45.46 240.27v10.75h9.78v-2.16h-7.62v-2.32h3.89v-2.16h-3.89v-1.95H55v-2.16h-9.54z"/><path class="cls-1" d="M782.76 383.48a9.78 9.78 0 0 0 2.76 1.28 10.69 10.69 0 0 0 2.78.36 8 8 0 0 0 .91-.06 4 4 0 0 0 .94-.23 2.2 2.2 0 0 0 .75-.45 1 1 0 0 0 .3-.73.88.88 0 0 0-.16-.54 1.12 1.12 0 0 0-.41-.33 2.2 2.2 0 0 0-.53-.19 2.26 2.26 0 0 0-.53-.06l-3.21-.1a5.14 5.14 0 0 1-1.73-.3 3.7 3.7 0 0 1-1.22-.73 2.8 2.8 0 0 1-.72-1 3.11 3.11 0 0 1-.24-1.2 3 3 0 0 1 .25-1.19 2.72 2.72 0 0 1 .83-1.06 4.53 4.53 0 0 1 1.54-.76 8.49 8.49 0 0 1 2.41-.29 9.51 9.51 0 0 1 1.91.18 12.55 12.55 0 0 1 1.5.4 7.2 7.2 0 0 1 1.09.47l.69.36-1 1.91c-.21-.11-.46-.23-.77-.36a10.63 10.63 0 0 0-2.28-.68 8.4 8.4 0 0 0-1.49-.12 7.87 7.87 0 0 0-.88.05 3.71 3.71 0 0 0-.82.19 1.65 1.65 0 0 0-.61.37.8.8 0 0 0-.24.59.68.68 0 0 0 .2.51 1.48 1.48 0 0 0 .49.32 2.25 2.25 0 0 0 .62.17 4.72 4.72 0 0 0 .6 0l2.8.1a5 5 0 0 1 3 .86 3 3 0 0 1 1.09 2.52 3.32 3.32 0 0 1-.29 1.37 2.91 2.91 0 0 1-.91 1.12 4.74 4.74 0 0 1-1.57.76 8.08 8.08 0 0 1-2.28.28 12.94 12.94 0 0 1-3.8-.5 8.46 8.46 0 0 1-2.73-1.37Z" transform="translate(-720.47 -135.93)"/><path class="cls-1" d="M88.47 240.27v4.07h-5.76v-4.07h-2.15v10.75h2.15v-4.52h5.76v4.52h2.16v-10.75h-2.16z"/><path class="cls-2" d="M826 382.14a2.35 2.35 0 1 1 .69 1.72 2.34 2.34 0 0 1-.69-1.72" transform="translate(-720.47 -135.93)"/><path class="cls-1" d="m138.66 240.27-2.47 7.89h-.04l-2.11-7.89h-2.78l-2.18 7.89h-.04l-2.4-7.89h-2.24l3.3 10.75h2.84l2.05-7.89h.04l2.05 7.89h2.88l3.34-10.75h-2.24zM147.35 240.27h2.16v10.75h-2.16zM157.79 240.27v10.75h8.34v-2.16h-6.18v-8.59h-2.16z"/><path class="cls-1" d="M895.92 384.79h3.67a4 4 0 0 0 1.31-.21 2.89 2.89 0 0 0 1-.61 2.84 2.84 0 0 0 .68-1 4.36 4.36 0 0 0 0-3 2.5 2.5 0 0 0-1.78-1.48 5.54 5.54 0 0 0-1.21-.13h-3.67Zm3.67-8.59a7.57 7.57 0 0 1 1.9.25 4.91 4.91 0 0 1 1.75.85 4.5 4.5 0 0 1 1.29 1.61 5.62 5.62 0 0 1 .5 2.5 6.66 6.66 0 0 1-.39 2.37 4.83 4.83 0 0 1-1.11 1.74 4.71 4.71 0 0 1-1.72 1.07 6.42 6.42 0 0 1-2.21.36h-5.82V376.2Z" transform="translate(-720.47 -135.93)"/><path class="cls-2" d="M918.45 382.14a2.35 2.35 0 1 1 .69 1.72 2.33 2.33 0 0 1-.69-1.72" transform="translate(-720.47 -135.93)"/><path class="cls-1" d="M941.72 378.36v2.05h4.68a4.51 4.51 0 0 0 .54 0 2.09 2.09 0 0 0 .56-.13 1.05 1.05 0 0 0 .45-.31.84.84 0 0 0 .18-.56.89.89 0 0 0-.17-.58.94.94 0 0 0-.42-.3 2 2 0 0 0-.55-.11h-.59Zm4.68-2.16a6.76 6.76 0 0 1 1.44.16 3.75 3.75 0 0 1 1.24.52 2.62 2.62 0 0 1 .87 1 3.24 3.24 0 0 1 .32 1.52 3.39 3.39 0 0 1-.23 1.31 3 3 0 0 1-.59.91 3 3 0 0 1-.79.59 7.48 7.48 0 0 1-.8.36l2.72 4.4h-2.72l-2.71-4.38h-3.44v4.38h-2.16V376.2ZM962.14 378.3l2.07 4.23h-4.15Zm-1.45-2.1-5.21 10.8h2.45l1.08-2.26h6.28l1.08 2.26h2.45l-5.26-10.75Z" transform="translate(-720.47 -135.93)"/><path class="cls-1" d="m266.52 240.27-2.47 7.89h-.04l-2.11-7.89h-2.78l-2.18 7.89h-.04l-2.4-7.89h-2.24l3.29 10.75h2.84l2.06-7.89h.04l2.05 7.89h2.88l3.34-10.75h-2.24z"/></svg>