<svg xmlns="http://www.w3.org/2000/svg" viewBox="0 0 223 223"><defs><style>.cls-1{fill:#fbfbfb;fill-rule:evenodd;}.cls-2{fill:#cdcdcd;}</style></defs><title>Practitioner@2x</title><g id="Layer_2" data-name="Layer 2"><g id="Layer_1-2" data-name="Layer 1"><path class="cls-1" d="M111.5,222A110.54,110.54,0,1,1,222,111.5,110.66,110.66,0,0,1,111.5,222Z"/><path class="cls-2" d="M111.5,1.92A109.58,109.58,0,0,1,189,189,109.58,109.58,0,1,1,34,34,108.86,108.86,0,0,1,111.5,1.92m0-1.92A111.5,111.5,0,1,0,223,111.5,111.5,111.5,0,0,0,111.5,0Z"/><path d="M151.22,88.58H131.1V83.66a11.06,11.06,0,0,0-11-11h-16.1a11.06,11.06,0,0,0-11,11v4.92H72.78A7.79,7.79,0,0,0,65,96.36v47.25a7.79,7.79,0,0,0,7.78,7.78h78.44a7.79,7.79,0,0,0,7.78-7.78V96.36A7.79,7.79,0,0,0,151.22,88.58ZM96.64,83.66a7.31,7.31,0,0,1,7.3-7.3h16.1a7.31,7.31,0,0,1,7.3,7.3v4.92H96.64Zm58.61,60a4,4,0,0,1-4,4H72.78a4,4,0,0,1-4-4V96.36a4,4,0,0,1,4-4h78.44a4,4,0,0,1,4,4v47.25Z"/><path d="M132.78,111.12H121.12V99.45a1.87,1.87,0,0,0-1.87-1.87H104.76a1.87,1.87,0,0,0-1.87,1.87v11.67H91.21A1.87,1.87,0,0,0,89.34,113v14.49a1.87,1.87,0,0,0,1.87,1.87h11.67V141a1.87,1.87,0,0,0,1.87,1.87h14.49a1.87,1.87,0,0,0,1.87-1.87V129.35h11.67a1.87,1.87,0,0,0,1.87-1.87V113A1.87,1.87,0,0,0,132.78,111.12Zm-1.87,14.49H119.24a1.87,1.87,0,0,0-1.87,1.87v11.67H106.63V127.48a1.87,1.87,0,0,0-1.87-1.87H93.09V114.87h11.67a1.87,1.87,0,0,0,1.87-1.87V101.33h10.74V113a1.87,1.87,0,0,0,1.87,1.87h11.67v10.74Z"/><path d="M94.21,94.77H81.1a1.87,1.87,0,0,0,0,3.74H94.21a1.87,1.87,0,0,0,0-3.74Z"/><path d="M74.55,94.77h-.94a1.87,1.87,0,0,0,0,3.74h.94a1.87,1.87,0,0,0,0-3.74Z"/></g></g></svg>