<svg xmlns="http://www.w3.org/2000/svg" viewBox="0 0 60 60"><defs><style>.cls-1{fill:#fcfcfc;fill-rule:evenodd;}.cls-2{fill:#cecdcc;}.cls-3{fill:#010101;}</style></defs><title>account icon</title><g id="Layer_2" data-name="Layer 2"><g id="Layer_1-2" data-name="Layer 1"><path class="cls-1" d="M30,59.74A29.74,29.74,0,1,1,59.74,30,29.77,29.77,0,0,1,30,59.74Z"/><path class="cls-2" d="M30,.52A29.48,29.48,0,1,1,.52,30,29.52,29.52,0,0,1,30,.52M30,0A30,30,0,1,0,60,30,30,30,0,0,0,30,0Z"/><path class="cls-3" d="M32.79,24a2.79,2.79,0,0,0-5.57,0v2.32H24.89v8.82H35.11V26.36H32.79Zm-4.64,0a1.86,1.86,0,0,1,3.71,0v2.32H28.14Zm2.32,7.83v1a.46.46,0,0,1-.93,0v-1a1.86,1.86,0,1,1,.93,0Z"/><circle class="cls-3" cx="30" cy="30.07" r="0.93"/><path class="cls-3" d="M30,16.61a12.54,12.54,0,0,0-1.07,25l-2,2a.46.46,0,1,0,.66.66l2.79-2.79a.46.46,0,0,0,.1-.15.47.47,0,0,0-.1-.51L27.54,38.1a.46.46,0,1,0-.66.66l1.93,1.93a11.61,11.61,0,1,1,9.43-3.38.46.46,0,1,0,.66.65A12.54,12.54,0,0,0,30,16.61Z"/></g></g></svg>