<svg xmlns="http://www.w3.org/2000/svg" viewBox="0 0 60 60"><defs><style>.cls-1{fill:#fcfcfc;fill-rule:evenodd;}.cls-2{fill:#cecdcc;}.cls-3{fill:#010101;}</style></defs><title>Adress icon</title><g id="Layer_2" data-name="Layer 2"><g id="Layer_1-2" data-name="Layer 1"><path class="cls-1" d="M30,59.74A29.74,29.74,0,1,1,59.74,30,29.77,29.77,0,0,1,30,59.74Z"/><path class="cls-2" d="M30,.52A29.48,29.48,0,1,1,.52,30,29.52,29.52,0,0,1,30,.52M30,0A30,30,0,1,0,60,30,30,30,0,0,0,30,0Z"/><path class="cls-3" d="M32.5,29.7H29.92c-3.24,0-3.58,4.77-3.28,5.08a7.22,7.22,0,0,0,4.59,1.28,7,7,0,0,0,4.44-1.21C36,34.6,35.74,29.7,32.5,29.7ZM35,34.15a6.18,6.18,0,0,1-3.73.91,6.22,6.22,0,0,1-3.73-.91c0-.15.23-3.48,2.47-3.48h2.57C34.77,30.66,35,34,35,34.15Z"/><path class="cls-3" d="M31.19,29.4a2.68,2.68,0,0,0,2.72-2.72,2.72,2.72,0,1,0-2.72,2.72Zm0-4.44A1.71,1.71,0,0,1,33,26.67,1.77,1.77,0,1,1,31.19,25Z"/><path class="cls-3" d="M39,18.14H23a2.16,2.16,0,0,0-2.17,2.17v4.44h-2v1h2V29.5h-2v1h2v3.73h-2v1h2v4.44A2.16,2.16,0,0,0,23,41.86H39a2.23,2.23,0,0,0,2.22-2.17V20.31A2.16,2.16,0,0,0,39,18.14ZM40.17,39.7A1.17,1.17,0,0,1,39,40.85H23a1.17,1.17,0,0,1-1.16-1.16V35.26h1.92v-1H21.85V30.51h1.92v-1H21.85V25.77h1.92v-1H21.85V20.31A1.17,1.17,0,0,1,23,19.15H39a1.17,1.17,0,0,1,1.16,1.16V39.7Z"/></g></g></svg>