<svg id="Layer_1" data-name="Layer 1" xmlns="http://www.w3.org/2000/svg" viewBox="0 0 461.2 489.2"><defs><style>.cls-1{fill:#706f6f;}</style></defs><title>agenda</title><path class="cls-1" d="M307.5,249.8H254.4c-66.9,0-73.8,98.4-67.6,104.7,16.7,15.6,53,26.5,94.7,26.5s76-10.4,91.6-25C379.4,350.7,374.3,249.8,307.5,249.8Zm51,91.6c-12.5,11.5-42.7,18.7-77,18.7s-64.5-7.3-77-18.7c-1-3.1,4.8-71.8,51-71.8h53.1c45.7-.1,51,68.6,49.9,71.8Z" transform="translate(-25.4 -11.3)"/><path class="cls-1" d="M280.5,243.5c31.2,0,57.3-25,56.2-56.2a56.2,56.2,0,1,0-56.2,56.2Zm0-91.6c20.8,0,36.4,15.6,36.4,35.4s-16.7,35.4-36.4,35.4S244,207.1,244,187.3,260.7,151.9,280.5,151.9Z" transform="translate(-25.4 -11.3)"/><path class="cls-1" d="M441.8,11.3h-330A44.47,44.47,0,0,0,67,56.1v91.6H25.4v20.8H67v77H25.4v20.8H67v77H25.4v20.8H67v91.6a44.47,44.47,0,0,0,44.8,44.8h329c25,0,44.8-19.8,45.8-44.8V56.1a44.47,44.47,0,0,0-44.8-44.8Zm24,444.6a24.16,24.16,0,0,1-23.9,23.9h-330A24.16,24.16,0,0,1,88,455.9V364.3h39.6V343.5H87.9v-77h39.6V245.7H87.9v-77h39.6V147.9H87.9V56.1a24.16,24.16,0,0,1,23.9-23.9h330a24.16,24.16,0,0,1,23.9,23.9V455.9Z" transform="translate(-25.4 -11.3)"/></svg>