<svg xmlns="http://www.w3.org/2000/svg" viewBox="0 0 72.3 72.11"><defs><style>.cls-1{fill:#07b1a9;}</style></defs><title>Contant button</title><g id="Layer_2" data-name="Layer 2"><g id="Layer_1-2" data-name="Layer 1"><path class="cls-1" d="M60.9.07a2.48,2.48,0,0,1,1.5.1c5.4,2.1,8.8,9.8,9.6,15.1,2.5,17.2-11.1,32.1-23.6,41.9-11.1,8.7-32.4,23-45,9.2-1.6-1.7-3.5-4.2-3.4-6.7.3-4.2,4.2-7.2,7.2-9.5,2.3-1.7,7.1-6.4,10.1-6.3,2.7.1,4.4,2.9,6.1,4.6l3,3c.5.5,6.9-3.7,7.6-4.2a51,51,0,0,0,7.3-5.7,47.1,47.1,0,0,0,5.9-6.8c.5-.7,4.6-6.8,4.2-7.3,0,0-3.5-3.8-4.5-5.3-2.1-3.2-3.7-5.7-1.3-9.5A22.35,22.35,0,0,1,48.81,9a60.72,60.72,0,0,1,6.6-5.8c1.3-1,3.5-2.8,5.5-3.1Z"/></g></g></svg>