<svg xmlns="http://www.w3.org/2000/svg" viewBox="0 0 60 60"><defs><style>.cls-1{fill:#fbfbfb;}.cls-2{fill:#cdcdcd;}.cls-3{fill:none;stroke:#000;stroke-linecap:round;stroke-linejoin:round;}</style></defs><title>Delete account</title><g id="Layer_2" data-name="Layer 2"><g id="Layer_2-2" data-name="Layer 2"><circle class="cls-1" cx="30" cy="30" r="29.74"/><path class="cls-2" d="M30,.52A29.48,29.48,0,1,1,.52,30,29.51,29.51,0,0,1,30,.52M30,0A30,30,0,1,0,60,30,30,30,0,0,0,30,0Z"/><path class="cls-3" d="M33.45,22.28a4.9,4.9,0,1,1-4.9-4.9,4.89,4.89,0,0,1,4.9,4.9"/><path class="cls-3" d="M38.14,32.91l-.08-.52a4.46,4.46,0,0,0-4.12-3.26H23.17a4.46,4.46,0,0,0-4.12,3.26l-.91,6h16"/><path class="cls-3" d="M34.12,38.35A4.89,4.89,0,1,0,39,32.83a4.49,4.49,0,0,0-.83.08,4.88,4.88,0,0,0-4.06,4.82,4.21,4.21,0,0,0,0,.62"/><line class="cls-3" x1="36.98" y1="35.74" x2="40.96" y2="39.71"/><line class="cls-3" x1="36.98" y1="39.71" x2="40.96" y2="35.74"/></g></g></svg>