<svg id="Layer_1" data-name="Layer 1" xmlns="http://www.w3.org/2000/svg" viewBox="0 0 489.95 291.2"><defs><style>.cls-1{fill:#878787;}</style></defs><title>eye</title><path class="cls-1" d="M488.37,140.4C437.37,54.1,344.77,0,245,0S52.47,54.1,1.57,140.4a9.37,9.37,0,0,0,0,10.4c51,86.3,143.6,140.4,243.4,140.4s192.5-54.1,243.4-140.4A9.37,9.37,0,0,0,488.37,140.4ZM245,270.4A260.12,260.12,0,0,1,23.37,145.6C97.56,23.21,256.92-15.85,379.31,58.34a259.14,259.14,0,0,1,87.26,87.26A260.12,260.12,0,0,1,245,270.4Z" transform="translate(0.01)"/><path class="cls-1" d="M245,52a93.21,93.21,0,1,0,.78,0Zm0,166.4a72.8,72.8,0,1,1,72.8-72.8h0a72.36,72.36,0,0,1-71.92,72.8Z" transform="translate(0.01)"/><path class="cls-1" d="M245,104v20.8a20.8,20.8,0,1,1-20.8,20.8h-20.8A41.6,41.6,0,1,0,245,104Z" transform="translate(0.01)"/></svg>