<svg xmlns="http://www.w3.org/2000/svg" viewBox="0 0 25.74 25.74"><defs><style>.cls-1{fill:#ffffff;}</style></defs><title>Link button icon</title><g id="Layer_2" data-name="Layer 2"><g id="Layer_1-2" data-name="Layer 1"><path class="cls-1" d="M0,17.46A8.16,8.16,0,0,0,2.44,23.3a8.2,8.2,0,0,0,11.67,0l1.83-1.83A1.76,1.76,0,1,0,13.46,19l-1.83,1.83a4.7,4.7,0,0,1-3.4,1.39,4.76,4.76,0,0,1-4.79-4.79A4.78,4.78,0,0,1,4.83,14l1.83-1.83A1.76,1.76,0,0,0,4.18,9.71L2.44,11.63A8.17,8.17,0,0,0,0,17.46Z"/><path class="cls-1" d="M19,13.46a1.74,1.74,0,1,0,2.44,2.48l1.83-1.83A8.25,8.25,0,1,0,11.63,2.44L9.8,4.27a1.76,1.76,0,1,0,2.48,2.48l1.83-1.83a4.79,4.79,0,0,1,8.19,3.4,4.78,4.78,0,0,1-1.39,3.4Z"/><path class="cls-1" d="M14.72,8.54,8.58,14.68A1.74,1.74,0,1,0,11,17.16L17.16,11a1.73,1.73,0,0,0,0-2.48,1.69,1.69,0,0,0-2.44,0Z"/></g></g></svg>