<svg xmlns="http://www.w3.org/2000/svg" viewBox="0 0 19.69 20.07"><defs><style>.cls-1{fill:none;stroke:#00b0a2;stroke-linecap:round;stroke-miterlimit:10;stroke-width:0.95px;}</style></defs><g id="Layer_2" data-name="Layer 2"><g id="Layer_3" data-name="Layer 3"><path class="cls-1" d="M9.84,10.09c-2.36,0-4.43-2.4-4.43-5.14A4.35,4.35,0,0,1,9.84.48,4.36,4.36,0,0,1,14.28,5C14.28,7.69,12.21,10.09,9.84,10.09Z"/><path class="cls-1" d="M19.21,19.59H.48v-.45a9.84,9.84,0,0,1,4.63-8.39l.33-.2.25.3A5.54,5.54,0,0,0,9.93,13a5.53,5.53,0,0,0,4.19-2.11l.25-.29.33.21a9.73,9.73,0,0,1,4.51,8.31v.45Z"/></g></g></svg>