<?xml version="1.0" encoding="utf-8"?>
<!-- Generator: Adobe Illustrator 22.0.1, SVG Export Plug-In . SVG Version: 6.00 Build 0)  -->
<svg version="1.1" id="Layer_1" xmlns="http://www.w3.org/2000/svg" xmlns:xlink="http://www.w3.org/1999/xlink" x="0px" y="0px"
	 viewBox="0 0 31 39.6" style="enable-background:new 0 0 31 39.6;" xml:space="preserve">
<style type="text/css">
	.st0{fill:#FFFFFF;}
	.st1{fill:#004162;}
</style>
<title>menu search</title>
<g id="Layer_2_1_">
	<g id="Layer_1-2">
		<circle class="st0" cx="15.5" cy="15.3" r="12.9"/>
		<path class="st1" d="M15.5,29.8C7.5,29.8,1,23.3,1,15.3S7.5,0.8,15.5,0.8S30,7.3,30,15.3S23.5,29.8,15.5,29.8z M15.5,4
			C9.3,4,4.2,9.1,4.2,15.3c0,6.2,5.1,11.3,11.3,11.3c6.2,0,11.3-5.1,11.3-11.3C26.8,9.1,21.7,4,15.5,4z"/>
		
			<rect x="24.1" y="25.3" transform="matrix(0.8078 -0.5895 0.5895 0.8078 -14.0213 21.2997)" class="st1" width="3.2" height="13.7"/>
	</g>
</g>
</svg>
