<svg xmlns="http://www.w3.org/2000/svg" viewBox="0 0 60 60"><defs><style>.cls-1{fill:#fcfcfc;fill-rule:evenodd;}.cls-2{fill:#cecdcc;}.cls-3{fill:#1e1e1c;}</style></defs><title>Previous icon</title><g id="Layer_2" data-name="Layer 2"><g id="Layer_1-2" data-name="Layer 1"><path class="cls-1" d="M30,59.74A29.74,29.74,0,1,1,59.74,30,29.77,29.77,0,0,1,30,59.74Z"/><path class="cls-2" d="M30,.52A29.48,29.48,0,1,1,.52,30,29.52,29.52,0,0,1,30,.52M30,0A30,30,0,1,0,60,30,30,30,0,0,0,30,0Z"/><path class="cls-3" d="M31.16,18.65A11.36,11.36,0,0,0,19.81,30a13.14,13.14,0,0,0,.41,3.52l-1.53-.89a.79.79,0,1,0-.8,1.37l3.58,2.09h0l.12,0,.08,0H22l.11,0,.09,0L22.3,36l.08-.06.08-.08.06-.08,0,0v0l0-.06L24,32.14a.79.79,0,1,0-1.47-.6l-.73,1.81A11.77,11.77,0,0,1,21.39,30a9.76,9.76,0,1,1,9.76,9.76.79.79,0,1,0,0,1.59,11.35,11.35,0,1,0,0-22.71Z"/><path class="cls-3" d="M30.85,31.53a.79.79,0,0,0,.25.05h.05a.79.79,0,0,0,.27-.05l.07,0a.79.79,0,0,0,.18-.12l0,0,5-5a.79.79,0,0,0-1.12-1.12L31,29.86l-4.11-1.72a.79.79,0,0,0-.61,1.47l4.61,1.93Z"/></g></g></svg>