<svg xmlns="http://www.w3.org/2000/svg" viewBox="0 0 24 25.09"><defs><style>.cls-1{fill:#ffffff;}</style></defs><title>Register button icon</title><g id="Layer_2" data-name="Layer 2"><g id="Layer_1-2" data-name="Layer 1"><path class="cls-1" d="M24,24.3a.79.79,0,0,1-.78.78H.79a.78.78,0,1,1,0-1.57H23.18a.8.8,0,0,1,.82.78ZM18.4,1.88l2.2,2.2L4.91,19.8l-2.2-2.2ZM2.09,19.21,3.3,20.42l-1.49.27ZM.79,22.46H1L5,21.68c.08,0,.12,0,.2-.08a0,0,0,0,0,0,0,.53.53,0,0,0,.16-.12L22.23,4.63a.76.76,0,0,0,0-1.1L18.94.24a.76.76,0,0,0-1.1,0L1,17.05s-.08.12-.12.16a0,0,0,0,1,0,0c0,.08,0,.12-.08.2L0,21.52a.89.89,0,0,0,.2.71.94.94,0,0,0,.59.24Z"/></g></g></svg>