<svg id="Layer_1" data-name="Layer 1" xmlns="http://www.w3.org/2000/svg" viewBox="0 0 54.19 39.02"><defs><style>.cls-1{fill:#f04e23;stroke:#000;stroke-miterlimit:10;stroke-width:1.18px;}</style></defs><title>reorder</title><path d="M1117,601a10.5,10.5,0,1,1-10.5,10.5A10.51,10.51,0,0,1,1117,601m0-2a12.5,12.5,0,1,0,12.5,12.5A12.5,12.5,0,0,0,1117,599Z" transform="translate(-1075.28 -584.98)"/><path d="M1104.58,613.11a12.55,12.55,0,0,1-.12-1.61c0-.32,0-.63,0-.94h-10.67a3.11,3.11,0,0,1-2.64-1.87l-.2-.69h14a12.41,12.41,0,0,1,1.1-2.62h-15.2a.28.28,0,0,1-.14,0l-3-9.69a2.6,2.6,0,0,1-.09-.35h25.75a1.57,1.57,0,0,1-.08.3l-2.3,4.95a12.41,12.41,0,0,1,3.49-1.28l1.22-2.62c.71-1.7.36-4-2.26-4h-26.24a2.44,2.44,0,0,0-.66.1l-1.28-4.37c-.49-1.68-1.39-3.4-4.24-3.4h-4.44a1.28,1.28,0,1,0,0,2.56H1081c1,0,1.38.2,1.79,1.57l6,20.37,0,.12c.06.14,1.47,3.5,5,3.5Z" transform="translate(-1075.28 -584.98)"/><circle cx="17.9" cy="30.69" r="2.32"/><line class="cls-1" x1="42.16" y1="22.18" x2="42.13" y2="30.86"/><line class="cls-1" x1="46.49" y1="26.54" x2="37.8" y2="26.5"/></svg>