<?xml version="1.0" encoding="utf-8"?>
<!-- Generator: Adobe Illustrator 21.1.0, SVG Export Plug-In . SVG Version: 6.00 Build 0)  -->
<svg version="1.1" id="Capa_1" xmlns="http://www.w3.org/2000/svg" xmlns:xlink="http://www.w3.org/1999/xlink" x="0px" y="0px"
	 viewBox="0 0 185.3 185.3" style="enable-background:new 0 0 185.3 185.3;" xml:space="preserve">
<style type="text/css">
	.st0{fill:#FFFFFF;}
</style>
<g>
	<g>
		<path class="st0" d="M19.7,185.3c-2.7,0-5.5-1-7.6-3.1c-4.2-4.2-4.2-11,0-15.2l74.4-74.3L12.1,18.3c-4.2-4.2-4.2-11,0-15.2
			c4.2-4.2,11-4.2,15.2,0l81.9,81.9c4.2,4.2,4.2,11,0,15.2l-81.9,81.9C25.2,184.3,22.5,185.3,19.7,185.3z"/>
	</g>
</g>
<g>
	<g>
		<path class="st0" d="M89.7,185.3c-2.7,0-5.5-1-7.6-3.1c-4.2-4.2-4.2-11,0-15.2l74.4-74.3L82.1,18.3c-4.2-4.2-4.2-11,0-15.2
			c4.2-4.2,11-4.2,15.2,0l81.9,81.9c4.2,4.2,4.2,11,0,15.2l-81.9,81.9C95.2,184.3,92.5,185.3,89.7,185.3z"/>
	</g>
</g>
</svg>
