<svg xmlns="http://www.w3.org/2000/svg" viewBox="0 0 18.61 20.1"><defs><style>.cls-1{fill:none;stroke:#004162;stroke-linecap:round;stroke-miterlimit:10;stroke-width:0.95px;}</style></defs><g id="Layer_2" data-name="Layer 2"><g id="Layer_3" data-name="Layer 3"><circle class="cls-1" cx="12.72" cy="8.38" r="1.25"/><circle class="cls-1" cx="6.06" cy="8.38" r="1.25"/><path class="cls-1" d="M6.06,6.92V2.37A1.87,1.87,0,0,1,7.91.48h3a1.87,1.87,0,0,1,1.85,1.89V6.92"/><path class="cls-1" d="M1.72,5.47H16.89a1.25,1.25,0,0,1,1.25,1.25s0,.11,0,.16L16.6,18.53a1.24,1.24,0,0,1-1.24,1.09H3.42a1.25,1.25,0,0,1-1.24-1.07L.49,6.9A1.25,1.25,0,0,1,1.55,5.48Z"/></g></g></svg>