<svg xmlns="http://www.w3.org/2000/svg" viewBox="0 0 51.44 39.16"><title>home page shipping</title><g id="Layer_2" data-name="Layer 2"><g id="Layer_2-2" data-name="Layer 2"><path d="M49.16,2.27V23.85H22.92V2.27H49.16M51.44,0H20.65V26.13H51.44V0Z"/><path d="M34,32H22.31a1.14,1.14,0,0,1,0-2.27H34A1.14,1.14,0,0,1,34,32Z"/><path d="M43.13,30.58A3.15,3.15,0,1,1,40,33.73a3.16,3.16,0,0,1,3.15-3.15m0-2.27a5.42,5.42,0,1,0,5.43,5.42,5.42,5.42,0,0,0-5.43-5.42Z"/><path d="M15.57,10.71V24A9.92,9.92,0,0,0,4.19,30.68H2.27V21L7.51,10.71h8.07m2.27-2.27H6.11L0,20.42V33H6a7.65,7.65,0,0,1,11.82-5.59V8.43Z"/><path d="M13.62,30.58a3.15,3.15,0,1,1-3.15,3.15,3.16,3.16,0,0,1,3.15-3.15m0-2.27A5.42,5.42,0,1,0,19,33.73a5.42,5.42,0,0,0-5.43-5.42Z"/></g></g></svg>