<svg id="Layer_1" data-name="Layer 1" xmlns="http://www.w3.org/2000/svg" viewBox="0 0 73.4 79.5"><defs><style>.cls-1{fill:#7f7f7f;}</style></defs><title>trash</title><path class="cls-1" d="M27.7,82.7l-1.9-56H74l-1.9,56a1.08,1.08,0,0,1-1,1H28.7a1.07,1.07,0,0,1-1-1ZM39.4,17.5a1.15,1.15,0,0,1,1.2-1.2H59.4a1.15,1.15,0,0,1,1.2,1.2v3.3H39.4ZM71.3,89.7a7,7,0,0,0,7-6.8l1.9-56.2h6.5v-6H66.6V17.4a7.17,7.17,0,0,0-7.2-7.2H40.6a7.17,7.17,0,0,0-7.2,7.2v3.3H13.3v6h6.5l1.9,56.2a7,7,0,0,0,7,6.8Z" transform="translate(-13.3 -10.2)"/><rect class="cls-1" x="33.7" y="29.8" width="6" height="29.9"/><rect class="cls-1" x="21.7" y="29.8" width="6" height="29.9"/><rect class="cls-1" x="45.7" y="29.8" width="6" height="29.9"/></svg>