<svg id="Capa_1" data-name="Capa 1" xmlns="http://www.w3.org/2000/svg" viewBox="0 0 25.61 28.26"><defs><style>.cls-1{fill:#ffffff;}</style></defs><title>update</title><path class="cls-1" d="M14.13,28.26a12.81,12.81,0,0,1,0-25.62,12.67,12.67,0,0,1,1.41.08V.66A.67.67,0,0,1,16,0a.67.67,0,0,1,.72.15l4.54,4.55a.66.66,0,0,1,0,.93l-4.53,4.56a.66.66,0,0,1-1.13-.47V7.47a7.82,7.82,0,0,0-1.41-.12,8.11,8.11,0,1,0,8.11,8.11.66.66,0,0,1,.66-.66h3.37a.66.66,0,0,1,.66.66A12.83,12.83,0,0,1,14.13,28.26Z" transform="translate(-1.33 0)"/></svg>