<svg id="Layer_1" data-name="Layer 1" xmlns="http://www.w3.org/2000/svg" xmlns:xlink="http://www.w3.org/1999/xlink" viewBox="0 0 88.04 141.86"><defs><style>.cls-1{fill:none;}.cls-2{clip-path:url(#clip-path);}.cls-3{fill:#f8f7f7;}</style><clipPath id="clip-path" transform="translate(0 0)"><rect class="cls-1" width="88.04" height="141.86"/></clipPath></defs><title>watermark2</title><g class="cls-2"><path class="cls-3" d="M56.7,128.31c-20.69,0-28.4-17.72-28.4-28.89,0-11.5,7.4-20.9,15.24-30.86l.18-.22c2.69-3.43,4.15-4.57,6.62-8.23C53.81,55,58.79,48.9,59.2,40.69c2.44,1.75,5,8.29,5.06,15.19.08,4.68-1.74,9.64-5.4,14.73-1.83,2.54-2.44,2.59-4.31,5-7.13,9-13.85,17.55-13.18,28,.55,8.77,7.11,23.65,22.48,21.82,5.07-.6,9.13-4.57,12.5-7.16A24.86,24.86,0,0,1,56.7,128.31" transform="translate(0 0)"/><path class="cls-3" d="M70,63.94c0,4.86-3.34,9.45-6.16,13.36-1.75,2.44-3.62,4.8-5.26,6.88-5.79,7.34-10.76,13.65-10.34,20.28.32,5.19,4.07,12.49,13,12.9A13.42,13.42,0,0,0,69.08,115a13.69,13.69,0,0,1-2.86.87,7.15,7.15,0,0,1-.94.06,7.58,7.58,0,0,1-5-2A9.66,9.66,0,0,1,57,106.78a15.29,15.29,0,0,1,2-6.84l.38-.75a55,55,0,0,1,4.4-6.71l1.37-1.75c1.8-2.3,3.56-4.33,4.84-5.82l.89-1c.12-.14.23-.27.36-.45a12.66,12.66,0,0,0,2.63-6.78c.36-4.31-2.1-8.94-3.88-12.7" transform="translate(0 0)"/><path class="cls-3" d="M55.58,9.08A9.08,9.08,0,1,1,46.5,0a9.08,9.08,0,0,1,9.08,9.08" transform="translate(0 0)"/><path class="cls-3" d="M87.83,101.25c-2.18,11.11-7.55,31.63-33.64,31.63-24.71,0-33.91-20.22-33.91-33s8.2-22.79,16.14-32.46l.08-.1C39.07,64.22,41.73,61,44,57.74c.85-1.21,1.69-2.57,2.51-4h0l0,0c.7-1.24,1.38-2.55,2-3.88,2.84-5.26,8.22-14.72,13.55-21.41,13.45-14,7.67-23.54,7.67-23.54-1.09,4.09-1.44,9.36-12.15,15a31.93,31.93,0,0,0-11.38,9.69c-.66-1.23-3-3.76-11.27-8C28.3,18.14,24.84,13.7,23.07,10.33a18.54,18.54,0,0,1-1.77-5l0,0S18.21,10,20.87,16.62c.07.18.16.34.24.52l0,0,.08.15a14.45,14.45,0,0,0,1.95,3.08c5.83,8.36,14.46,16.13,1.15,32.2C14.94,63.8,0,77.93,0,99.21c0,23.18,19.56,41.91,44.54,42.63l1.74,0C71.4,141.86,88,128,88,105.14Z" transform="translate(0 0)"/></g></svg>