<?xml version="1.0" encoding="utf-8"?>
<!-- Generator: Adobe Illustrator 21.0.2, SVG Export Plug-In . SVG Version: 6.00 Build 0)  -->
<svg version="1.1" id="logos" xmlns="http://www.w3.org/2000/svg" xmlns:xlink="http://www.w3.org/1999/xlink" x="0px" y="0px"
	 viewBox="0 0 170 274" style="enable-background:new 0 0 170 274;" xml:space="preserve">
<style type="text/css">
	.st0{fill:#FFFFFF;}
</style>
<g>
	<path class="st0" d="M109.3,247.8c-39.8,0-54.9-34.2-54.9-55.8c0-22.2,14.2-40.4,29.4-59.6l0.4-0.4c5.2-6.6,8-8.8,12.8-15.8
		c6.6-10,16.2-21.6,17-37.4c4.6,3.4,9.6,16,9.8,29.2c0.2,9-3.4,18.6-10.4,28.4c-3.6,5-4.6,5-8.4,9.6c-13.8,17.4-26.6,33.8-25.4,54
		c1,17,13.8,45.6,43.5,42.2c9.8-1.2,17.6-8.8,24-13.8C140,238.8,125.1,247.8,109.3,247.8"/>
	<path class="st0" d="M135,123.5c0,9.4-6.4,18.2-11.8,25.8c-3.4,4.8-7,9.2-10.2,13.2c-11.2,14.2-20.8,26.4-20,39.2
		c0.6,10,7.8,24,25.2,24.8c6.2,0.2,11.4-2.4,15-4.6c-1.4,0.6-4.2,1.6-5.6,1.6c-0.6,0-1.2,0.2-1.8,0.2c-3.4,0-6.8-1.4-9.6-3.8
		c-4-3.4-6.2-8.6-6.2-13.8c0-3.8,1.2-8.2,3.8-13.2l0.8-1.4c1.6-3.2,6.4-10.6,8.4-13l2.6-3.4c3.4-4.4,6.8-8.4,9.4-11.2l1.8-2
		c0.2-0.2,0.4-0.6,0.6-0.8c3-3.8,4.6-8.2,5-13C143.2,139.7,138.4,130.7,135,123.5"/>
	<path class="st0" d="M107.1,17.6c0,9.6-7.8,17.6-17.4,17.6c-9.6,0-17.6-7.8-17.6-17.6C72.1,8,79.9,0,89.7,0
		C99.3,0,107.1,7.8,107.1,17.6"/>
	<path class="st0" d="M169.4,195.5c-4.2,21.4-14.6,61-64.9,61c-47.7,0-65.5-39-65.5-63.6s15.8-44,31.2-62.6l0.2-0.2
		c5-6,10-12.2,14.4-18.6c1.6-2.4,3.2-5,4.8-7.8l0,0l0,0c1.4-2.4,2.6-5,4-7.4c5.4-10.2,15.8-28.4,26.2-41.4
		c26-27,14.8-45.4,14.8-45.4c-2.2,7.8-2.8,18-23.4,29c-11.4,6-18.2,13.4-22,18.8c-1.2-2.4-5.8-7.2-21.8-15.4
		c-13-6.6-19.6-15.2-23-21.8c-2.2-4.2-3-7.6-3.4-9.6l0,0c0,0-6,9-0.8,21.8c0.2,0.4,0.4,0.6,0.4,1l0,0l0.2,0.2c1,2.2,2.4,4.2,3.8,6
		c11.2,16.2,27.8,31.2,2.2,62.2c-18,21.8-46.9,49-46.9,90.1c0,44.8,37.8,80.9,85.9,82.3c1.2,0,2.2,0,3.4,0
		c48.5,0,80.7-26.8,80.7-70.9L169.4,195.5z"/>
</g>
</svg>
